<svg xmlns="http://www.w3.org/2000/svg" width="32" height="32" viewBox="0 0 32 32">
  <g fill="none" fill-rule="evenodd">
    <rect width="32" height="32" transform="matrix(-1 0 0 1 32 0)"/>
    <path fill="#FFF" fill-rule="nonzero" d="M18.0617928 14.9747409C18.0884329 12.909472 19.172449 11.0017918 20.9340543 9.92005913 19.8176885 8.32758076 18.0148823 7.35411278 16.0694825 7.29331826 14.0227634 7.07874087 12.0385584 8.51658957 10.9955878 8.51658957 9.93243324 8.51658957 8.32661607 7.31462261 6.59741607 7.35015826 4.32223977 7.4235772 2.25257717 8.68429189 1.14565762 10.6710435-1.2115723 14.7473809.546709141 20.7382243 2.80473795 24.0332278 3.93447756 25.6466974 5.25481884 27.4489843 6.98245873 27.3850713 8.67305817 27.3150348 9.30446427 26.308313 11.3451623 26.308313 13.3669197 26.308313 13.9593108 27.3850713 15.7220044 27.3444348 17.5360964 27.3150226 18.6790604 25.7237948 19.7691634 24.095047 20.5808795 22.9453909 21.2054937 21.6747707 21.6198693 20.3302522 19.4652789 19.4200468 18.0643076 17.3113462 18.0617928 14.9747409L18.0617928 14.9747409zM14.7323823 5.12630087C15.7215006 3.94030841 16.2088016 2.41591603 16.0908.876850435 14.5796472 1.03537972 13.1837653 1.75675613 12.1812842 2.89724522 11.1913802 4.02249099 10.6898971 5.4946137 10.7872886 6.98937217 12.3187042 7.00512128 13.7727509 6.3184474 14.7323823 5.12630087L14.7323823 5.12630087z"/>
  </g>
</svg>
