<?xml version="1.0" encoding="UTF-8"?>
<svg width="24px" height="24px" viewBox="0 0 24 24" version="1.1" xmlns="http://www.w3.org/2000/svg" xmlns:xlink="http://www.w3.org/1999/xlink">
    <!-- Generator: Sketch 54.1 (76490) - https://sketchapp.com -->
    <title>ic_desktop_client</title>
    <desc>Created with Sketch.</desc>
    <g id="Page-2" stroke="none" stroke-width="1" fill="none" fill-rule="evenodd">
        <g id="plink.league" transform="translate(-24.000000, -186.000000)">
            <g id="Group-3" transform="translate(24.000000, 186.000000)">
                <rect id="Rectangle-Copy-7" x="0" y="0" width="24" height="24"></rect>
                <g id="desktop-mac" transform="translate(1.000000, 2.000000)" fill="#58638B" fill-rule="nonzero">
                    <path d="M20,13 L2,13 L2,2 L20,2 L20,13 Z M20,0 L2,0 C0.89,0 0,0.89 0,2 L0,14 C2.22044605e-16,15.1045695 0.8954305,16 2,16 L9,16 L7,19 L7,20 L15,20 L15,19 L13,16 L20,16 C21.1045695,16 22,15.1045695 22,14 L22,2 C22,0.89 21.1,0 20,0 Z" id="Shape"></path>
                </g>
            </g>
        </g>
    </g>
</svg>