<svg xmlns="http://www.w3.org/2000/svg" width="32" height="32" viewBox="0 0 32 32">
  <defs>
    <linearGradient id="ic_playmarket-a" x1="61.475%" x2="25.139%" y1="4.84%" y2="71.968%">
      <stop offset="0%" stop-color="#00A0FF"/>
      <stop offset=".7%" stop-color="#00A1FF"/>
      <stop offset="26%" stop-color="#00BEFF"/>
      <stop offset="51.2%" stop-color="#00D2FF"/>
      <stop offset="76%" stop-color="#00DFFF"/>
      <stop offset="100%" stop-color="#00E3FF"/>
    </linearGradient>
    <linearGradient id="ic_playmarket-b" x1="107.724%" x2="-130.67%" y1="49.424%" y2="49.424%">
      <stop offset="0%" stop-color="#FFE000"/>
      <stop offset="40.9%" stop-color="#FFBD00"/>
      <stop offset="77.5%" stop-color="orange"/>
      <stop offset="100%" stop-color="#FF9C00"/>
    </linearGradient>
    <linearGradient id="ic_playmarket-c" x1="86.389%" x2="-49.886%" y1="31.582%" y2="132.624%">
      <stop offset="0%" stop-color="#FF3A44"/>
      <stop offset="100%" stop-color="#C31162"/>
    </linearGradient>
    <linearGradient id="ic_playmarket-d" x1="-18.581%" x2="42.275%" y1="-9.26%" y2="35.652%">
      <stop offset="0%" stop-color="#32A071"/>
      <stop offset="6.9%" stop-color="#2DA771"/>
      <stop offset="47.6%" stop-color="#15CF74"/>
      <stop offset="80.1%" stop-color="#06E775"/>
      <stop offset="100%" stop-color="#00F076"/>
    </linearGradient>
  </defs>
  <g fill="none" fill-rule="evenodd">
    <rect width="32" height="32" transform="matrix(-1 0 0 1 32 0)"/>
    <g fill-rule="nonzero" transform="translate(0 3)">
      <path fill="url(#ic_playmarket-a)" d="M0.404210526,0.349449284 C0.101052632,0.646592141 -8.70414851e-14,1.14183024 -8.70414851e-14,1.73611595 L-8.70414851e-14,23.6256398 C-8.70414851e-14,24.2199255 0.202105263,24.7151636 0.505263158,25.0123064 L0.606315789,25.111354 L13.1368421,12.8294493 L13.1368421,12.631354 L0.404210526,0.349449284 Z"/>
      <path fill="url(#ic_playmarket-b)" d="M17.1789474,16.9894493 L13.0357895,12.9284969 L13.0357895,12.631354 L17.1789474,8.57040167 L17.28,8.66944928 L22.2315789,11.4427826 C23.6463158,12.2351636 23.6463158,13.5227826 22.2315789,14.3151636 L17.1789474,16.9894493 L17.1789474,16.9894493 Z"/>
      <path fill="url(#ic_playmarket-c)" d="M17.28,16.8904017 L13.0357895,12.7304017 L0.404210526,25.111354 C0.909473684,25.6065921 1.61684211,25.6065921 2.52631579,25.2104017 L17.28,16.8904017"/>
      <path fill="url(#ic_playmarket-d)" d="M17.28,8.57040167 L2.52631579,0.349449284 C1.61684211,-0.145788811 0.909473684,-0.046741192 0.404210526,0.448496903 L13.0357895,12.7304017 L17.28,8.57040167 L17.28,8.57040167 Z"/>
      <path fill="#000" d="M17.1789474,16.791354 L2.52631579,24.9132588 C1.71789474,25.4084969 1.01052632,25.3094493 0.505263158,24.9132588 L0.404210526,25.0123064 L0.505263158,25.111354 C1.01052632,25.5075445 1.71789474,25.6065921 2.52631579,25.111354 L17.1789474,16.791354 Z" opacity=".2"/>
      <path fill="#000" d="M0.404210526,24.9132588 C0.101052632,24.616116 5.5067062e-14,24.1208779 5.5067062e-14,23.5265921 L5.5067062e-14,23.6256398 C5.5067062e-14,24.2199255 0.202105263,24.7151636 0.505263158,25.0123064 L0.505263158,24.9132588 L0.404210526,24.9132588 Z M22.2315789,14.0180207 L17.1789474,16.791354 L17.28,16.8904017 L22.2315789,14.1170683 C22.9389474,13.7208779 23.2421053,13.2256398 23.2421053,12.7304017 C23.2421053,13.2256398 22.8378947,13.6218302 22.2315789,14.0180207 L22.2315789,14.0180207 Z" opacity=".12"/>
      <path fill="#FFF" d="M2.52631579,0.448496903 L22.2315789,11.4427826 C22.8378947,11.8389731 23.2421053,12.2351636 23.2421053,12.7304017 C23.2421053,12.2351636 22.9389474,11.7399255 22.2315789,11.343735 L2.52631579,0.349449284 C1.11157895,-0.442931668 5.5067062e-14,0.151354046 5.5067062e-14,1.73611595 L5.5067062e-14,1.83516357 C5.5067062e-14,0.349449284 1.11157895,-0.343884049 2.52631579,0.448496903 Z" opacity=".25"/>
    </g>
  </g>
</svg>
