<svg xmlns="http://www.w3.org/2000/svg" width="27" height="26" viewBox="0 0 27 26">
    <g fill="none" fill-rule="evenodd">
        <path d="M-3-3h32v32H-3z"/>
        <g fill="#F08156" fill-rule="nonzero">
            <path d="M23 3.735C20.455 1.327 17.085 0 13.5 0S6.545 1.327 4 3.735c-2.578 2.444-4 5.701-4 9.18 0 2.742.924 5.431 2.611 7.637-.331.699-.785 1.255-1.36 1.66-.476.336-.703.94-.576 1.537.122.591.564 1.022 1.118 1.105 1.14.174 3.364.257 5.427-1.075.47-.305.625-.969.343-1.476-.282-.508-.896-.676-1.366-.371a5.567 5.567 0 0 1-2.567.849 7.042 7.042 0 0 0 1.078-2.05 1.15 1.15 0 0 0-.199-1.106c-1.649-1.924-2.517-4.249-2.517-6.71C1.992 6.98 7.154 2.15 13.5 2.15c6.346 0 11.508 4.829 11.508 10.763S19.846 23.677 13.5 23.677c-.924 0-1.837-.102-2.722-.305-.537-.12-1.068.251-1.179.83-.116.587.227 1.154.764 1.28 1.023.233 2.075.352 3.137.352 3.58 0 6.955-1.326 9.5-3.735 2.578-2.45 4-5.707 4-9.185 0-3.478-1.422-6.735-4-9.179z"/>
            <path d="M19.505 9.726h-2.932c-.548 0-.996.484-.996 1.076 0 .591.448 1.075.996 1.075h2.932c.548 0 .996-.484.996-1.075 0-.592-.448-1.076-.996-1.076zM12.946 9.726h-5.72c-.547 0-.995.484-.995 1.076 0 .591.448 1.075.996 1.075h5.719c.548 0 .996-.484.996-1.075 0-.592-.448-1.076-.996-1.076zM19.57 14.049h-6.113c-.547 0-.995.484-.995 1.075 0 .592.448 1.076.995 1.076h6.112c.548 0 .996-.484.996-1.076 0-.591-.448-1.075-.996-1.075zM9.76 14.049H7.228c-.548 0-.996.484-.996 1.075 0 .592.448 1.076.996 1.076H9.76c.547 0 .996-.484.996-1.076 0-.591-.449-1.075-.996-1.075z"/>
        </g>
    </g>
</svg>
