<svg xmlns="http://www.w3.org/2000/svg" width="28" height="26" viewBox="0 0 28 26">
    <g fill="none" fill-rule="evenodd">
        <path d="M-2-3h32v32H-2z"/>
        <path fill="#72A3F5" fill-rule="nonzero" d="M26.995 15.404c-1.862-1.548-3.844-2.677-4.791-3.183V9.753c.46-.489.718-1.146.718-1.833V4.306C22.922 1.932 21.014 0 18.67 0h-.764c-2.343 0-4.25 1.932-4.25 4.306V7.92c0 .693.258 1.344.717 1.833v2.468c-.947.506-2.935 1.635-4.79 3.183a2.814 2.814 0 0 0-1.006 2.165v5.889H2.068v-5.43c0-.116.052-.22.132-.29 1.718-1.432 3.58-2.38 3.935-2.555a1.19 1.19 0 0 0 .655-1.06v-2.84c0-.348-.172-.674-.46-.872a.27.27 0 0 1-.126-.233V7.233A1.6 1.6 0 0 1 7.79 5.627h.626a1.6 1.6 0 0 1 1.586 1.606v2.945a.27.27 0 0 1-.127.233c-.477.32-.603.972-.287 1.455.316.483.96.61 1.436.29a2.38 2.38 0 0 0 1.046-1.978V7.233c0-2.042-1.638-3.7-3.654-3.7H7.79c-2.017 0-3.654 1.658-3.654 3.7v2.945c0 .588.213 1.14.586 1.571v1.816c-.816.43-2.372 1.333-3.832 2.555A2.492 2.492 0 0 0 0 18.034v6.477c0 .576.465 1.048 1.034 1.048h8.577c.569 0 1.034-.472 1.034-1.048V17.57c0-.216.092-.413.253-.547 2.125-1.77 4.435-2.95 4.877-3.172.408-.204.667-.628.667-1.088V9.276c0-.35-.173-.675-.46-.873a.589.589 0 0 1-.259-.483V4.306c0-1.216.977-2.211 2.183-2.211h.77c1.2 0 2.183.99 2.183 2.211V7.92a.581.581 0 0 1-.258.483c-.287.192-.46.524-.46.873v3.486c0 .46.264.884.667 1.088.442.221 2.751 1.397 4.877 3.172.16.134.253.331.253.547v5.889H14c-.569 0-1.034.471-1.034 1.047 0 .577.465 1.048 1.034 1.048h12.966c.569 0 1.034-.471 1.034-1.048V17.57c0-.844-.368-1.63-1.005-2.165z"/>
    </g>
</svg>
